<svg width="35" height="35" viewBox="0 0 86 53" fill="none" xmlns="http://www.w3.org/2000/svg">
<path d="M4.24657 6.61057L27.8687 10.4852L38.0219 1.81183C38.5868 1.32674 39.2438 0.946037 39.8487 0.681999C40.9487 0.147076 42.173 -0.0799675 43.3917 0.0249761C44.4356 0.117082 45.4487 0.454802 46.3698 1.06884L61.3831 10.8935C63.2252 12.0909 64.2875 14.2093 64.1985 16.4475L68.1775 17.1015L76.0894 3.84431C76.4271 3.32237 77.0104 3.01535 77.6245 3.07676L81.6772 3.44518C82.721 3.53729 83.3965 4.58116 83.0587 5.56363L78.5947 18.8085L80.3754 19.1002C83.2982 19.5607 86 22.1826 86 24.9827L3.77069 10.2948L7.08651 16.4966L79.4605 29.7384C79.2506 29.8869 79.0428 30.0384 78.8372 30.1928L78.7666 30.245C78.0666 30.7669 77.649 31.0647 77.1578 31.2827C76.728 31.4762 76.1446 31.645 75.2021 31.645C74.2749 31.645 73.6977 31.4762 73.2679 31.2858C72.7828 31.0678 72.3652 30.77 71.6621 30.245L71.6007 30.199C70.956 29.72 70.0472 29.0415 68.8867 28.5257C67.4827 27.9126 65.9636 27.6079 64.4318 27.6323C62.6726 27.6323 61.2388 27.9669 59.9861 28.5288C58.8318 29.0446 57.9291 29.72 57.2874 30.199L57.223 30.2481C56.523 30.77 56.1085 31.0678 55.6203 31.2858C55.0096 31.5456 54.3493 31.6683 53.6861 31.645C52.7589 31.645 52.1817 31.4762 51.7549 31.2858C51.2698 31.0709 50.8554 30.77 50.1554 30.2481L50.0878 30.199C49.2554 29.5419 48.3511 28.9816 47.3922 28.5288C45.992 27.9137 44.4756 27.6079 42.9465 27.6323C41.4174 27.6076 39.9009 27.9134 38.5009 28.5288C37.3495 29.0446 36.4438 29.72 35.8052 30.199L35.7377 30.2481C35.0377 30.77 34.6232 31.0678 34.1381 31.2858C33.5273 31.5454 32.8671 31.668 32.2039 31.645C31.2767 31.645 30.6995 31.4762 30.2696 31.2858C29.7845 31.0709 29.3701 30.77 28.6731 30.2481L28.6056 30.199C27.7722 29.5417 26.8668 28.9814 25.9069 28.5288C24.5077 27.9141 22.9924 27.6083 21.4643 27.6323C19.7051 27.6323 18.2713 27.9669 17.0186 28.5288C15.8612 29.0446 14.9585 29.7261 14.3168 30.2051L14.2554 30.2511L13.8809 30.5275C10.5372 27.2409 7.63879 23.5301 5.25974 19.4901L3.07989 15.7628H3.08603L3.06761 15.7352L0.18162 10.0922C0.102531 9.94643 0.0475785 9.78883 0.0188994 9.62551H0.00968871C0.0017971 9.51107 -0.00127589 9.39635 0.00047803 9.28165C0.0311801 7.37812 1.56628 6.55223 3.66016 6.55223C3.82288 6.55223 3.98253 6.57372 4.16675 6.59829L4.24657 6.61057ZM45.0803 7.14785C45.9093 6.16539 45.6943 4.66098 44.6198 3.95484L44.0364 3.58027C42.9834 3.00308 41.6202 3.37457 41.0399 3.53422C41 3.54435 40.9601 3.55459 40.9202 3.56492C40.5964 3.71887 40.2931 3.91278 40.0175 4.14212L31.8324 11.1361L39.0166 12.315L45.0803 7.14785ZM59.2033 13.319L52.0497 8.65225C51.6031 8.34847 51.084 8.16838 50.5453 8.13032C49.7163 8.03821 48.7952 8.31453 48.0891 8.89787L43.2689 13.0119L60.6309 15.8611C60.6144 15.3539 60.476 14.8581 60.2275 14.4157C59.979 13.9732 59.6277 13.5971 59.2033 13.319Z" fill="#EDEDED"/>
<path d="M82.7886 31.3287C81.9504 31.7033 81.278 32.2037 80.6087 32.7042C79.2579 33.7081 77.907 34.7151 75.2052 34.7151C72.5218 34.7151 71.1771 33.7143 69.8323 32.7134C68.4845 31.7094 67.1336 30.7024 64.4288 30.7024C61.7454 30.7024 60.4037 31.7063 59.059 32.7072C57.7173 33.7112 56.3725 34.7151 53.6861 34.7151C51.0027 34.7151 49.6611 33.7112 48.3163 32.7072C46.9746 31.7063 45.633 30.7024 42.9465 30.7024C40.2601 30.7024 38.9184 31.7063 37.5737 32.7072L37.0702 33.0818C35.8758 33.9476 34.5526 34.7151 32.2039 34.7151C29.5205 34.7151 28.1758 33.7112 26.831 32.7072C25.4924 31.7063 24.1507 30.7024 21.4674 30.7024C18.8393 30.7024 17.4976 31.6603 16.1866 32.6428L16.0945 32.7134C14.7559 33.7143 13.4234 34.7151 10.7524 34.7151C8.06899 34.7151 6.72731 33.7112 5.38256 32.7072C4.03781 31.7063 2.69613 30.7024 0.00970459 30.7024V52.1938H85.9448L85.9755 30.7024C85.5548 30.7024 85.1711 30.727 84.8088 30.773C84.1116 30.8556 83.4307 31.0418 82.7886 31.3256V31.3287Z" fill="#EDEDED"/>
</svg>
