<svg width="35" height="35" viewBox="0 0 61 68" fill="none" xmlns="http://www.w3.org/2000/svg">
<path d="M0 68V61.6744H3.05C4.67667 61.6744 6.2525 61.4109 7.7775 60.8837C9.3025 60.3566 10.7767 59.5659 12.2 58.5116C13.6233 59.5659 15.0975 60.3439 16.6225 60.8458C18.1475 61.3455 19.7233 61.5954 21.35 61.5954C22.9767 61.5954 24.5647 61.3455 26.1141 60.8458C27.6655 60.3439 29.1275 59.5659 30.5 58.5116C31.9233 59.5659 33.3975 60.3439 34.9225 60.8458C36.4475 61.3455 38.0233 61.5954 39.65 61.5954C41.2767 61.5954 42.8647 61.3455 44.4141 60.8458C45.9655 60.3439 47.4275 59.5659 48.8 58.5116C50.1725 59.5659 51.6345 60.3566 53.1859 60.8837C54.7353 61.4109 56.3233 61.6744 57.95 61.6744H61V68H57.95C56.3742 68 54.8237 67.8018 53.2988 67.4054C51.7738 67.0111 50.2742 66.4186 48.8 65.6279C47.3258 66.4186 45.8262 67.0111 44.3012 67.4054C42.7762 67.8018 41.2258 68 39.65 68C38.0742 68 36.5238 67.8018 34.9987 67.4054C33.4738 67.0111 31.9742 66.4186 30.5 65.6279C29.0258 66.4186 27.5262 67.0111 26.0012 67.4054C24.4762 67.8018 22.9258 68 21.35 68C19.7742 68 18.2237 67.8018 16.6987 67.4054C15.1737 67.0111 13.6742 66.4186 12.2 65.6279C10.7258 66.4186 9.22625 67.0111 7.70125 67.4054C6.17625 67.8018 4.62583 68 3.05 68H0ZM19.825 7.90698L36.7525 11.1488C37.4642 11.2543 38.1504 11.5442 38.8112 12.0186C39.4721 12.493 40.0312 13.1519 40.4887 13.9953L43.1575 18.8977C44.4792 21.2698 46.3092 23.1938 48.6475 24.6698C50.9858 26.1457 53.5783 26.8837 56.425 26.8837V33.2093C52.46 33.2093 48.8508 32.1814 45.5975 30.1256C42.3442 28.0698 39.7771 25.3814 37.8963 22.0605C37.8454 22.1132 37.4896 22.363 36.8288 22.81C36.1679 23.2592 35.444 23.761 34.6572 24.3155L32.4062 25.8969C31.6946 26.3967 31.2371 26.7256 31.0338 26.8837L33.1321 28.6233C34.2749 29.5721 35.5203 30.5863 36.8684 31.6659L40.6016 34.6705C41.7464 35.594 42.4458 36.1612 42.7 36.3721V48.5488C43.5133 49.1287 44.3012 49.7349 45.0637 50.3674C45.8262 51 46.5633 51.6062 47.275 52.186C46.2075 53.1349 45.0383 53.8992 43.7675 54.4791C42.4967 55.0589 41.1242 55.3488 39.65 55.3488C37.82 55.3488 36.1171 54.9008 34.5412 54.0047C32.9654 53.1085 31.6183 51.9752 30.5 50.6047C29.3817 51.9752 28.0346 53.1085 26.4587 54.0047C24.8829 54.9008 23.18 55.3488 21.35 55.3488C20.8417 55.3488 20.3455 55.3088 19.8616 55.2287C19.3797 55.1506 18.91 55.0326 18.4525 54.8744C14.0808 51.7643 10.4208 48.6279 7.4725 45.4651C4.52417 42.3023 3.05 39.5612 3.05 37.2419C3.05 35.6077 3.66 34.5271 4.88 34C6.1 33.4729 7.37083 33.2093 8.6925 33.2093C10.1667 33.2093 11.8696 33.4328 13.8013 33.8798C15.7329 34.3289 17.7917 34.9752 19.9775 35.8186L18.3762 26.014C18.1729 24.9597 18.2868 23.9191 18.7178 22.8923C19.1509 21.8633 19.825 21.0326 20.74 20.4L27.2975 15.814C27.145 15.814 26.777 15.7486 26.1934 15.6179C25.6078 15.485 24.9592 15.3522 24.2475 15.2193C23.5358 15.0886 22.8872 14.9579 22.3016 14.8272C21.718 14.6943 21.35 14.6279 21.1975 14.6279L12.5813 20.7163L9.15 15.4977L19.825 7.90698ZM25.315 30.3628L26.6875 38.7442C28.06 39.4295 29.7629 40.3393 31.7962 41.4737C33.8296 42.606 35.4308 43.5411 36.6 44.2791V39.5349C36.4475 39.4295 35.8121 38.915 34.6937 37.9914C33.5754 37.07 32.3554 36.0822 31.0338 35.0279C29.7121 33.9736 28.4799 32.9721 27.3372 32.0233C26.1924 31.0744 25.5183 30.5209 25.315 30.3628ZM45.75 12.6512C44.0725 12.6512 42.637 12.0313 41.4434 10.7914C40.2478 9.55374 39.65 8.06512 39.65 6.32558C39.65 4.58605 40.2478 3.09637 41.4434 1.85656C42.637 0.618852 44.0725 0 45.75 0C47.4275 0 48.864 0.618852 50.0597 1.85656C51.2532 3.09637 51.85 4.58605 51.85 6.32558C51.85 8.06512 51.2532 9.55374 50.0597 10.7914C48.864 12.0313 47.4275 12.6512 45.75 12.6512Z" fill="#EDEDED"/>
</svg>
