<svg width="35" height="35" viewBox="0 0 58 61" fill="none" xmlns="http://www.w3.org/2000/svg">
<path d="M58 61C56.7682 60.9968 55.5514 60.7272 54.4317 60.2095C53.2793 59.6647 52.0229 59.3798 50.75 59.3746C49.4768 59.3767 48.2197 59.6618 47.0683 60.2095C45.9486 60.7258 44.7325 60.9953 43.5013 61C42.2649 60.9971 41.0436 60.7275 39.9191 60.2095C38.7676 59.662 37.5106 59.377 36.2374 59.3746C34.9684 59.3782 33.7157 59.6633 32.5683 60.2095C31.4443 60.7277 30.2233 60.9972 28.9874 61C27.7164 61 26.5035 60.7077 25.4204 60.2095C24.2698 59.6619 23.0136 59.3768 21.7412 59.3746C20.4679 59.3797 19.211 59.6646 18.0582 60.2095C16.9415 60.7268 15.7277 60.9964 14.4987 61C13.2278 61 12.0148 60.7077 10.9317 60.2095C9.78033 59.6618 8.52323 59.3767 7.25 59.3746C5.97712 59.3798 4.72069 59.6647 3.56826 60.2095C2.44867 60.7274 1.23184 60.9969 0 61V55.5658C1.27096 55.5658 2.48391 55.2723 3.567 54.7716C4.72337 54.2405 5.97801 53.9616 7.24874 53.9531C8.56257 53.9531 9.81965 54.2607 10.9305 54.7716C12.0489 55.292 13.2656 55.5629 14.4975 55.5658C15.7272 55.5621 16.9417 55.2912 18.0582 54.7716C19.2149 54.2402 20.47 53.9613 21.7412 53.9531C23.055 53.9531 24.307 54.2607 25.4204 54.7716C26.5388 55.292 27.7555 55.5629 28.9874 55.5658C30.2237 55.5627 31.4449 55.2918 32.5683 54.7716C33.7197 54.2389 34.9705 53.9599 36.2374 53.9531C37.55 53.9531 38.8058 54.2607 39.9191 54.7716C41.0429 55.2921 42.2645 55.563 43.5013 55.5658C44.7558 55.5658 45.9852 55.2723 47.0683 54.7716C48.2236 54.2374 49.4789 53.9584 50.75 53.9531C52.05 53.9531 53.3058 54.2607 54.4317 54.7716C55.5507 55.2917 56.7678 55.5626 58 55.5658V61ZM34.5756 49.7784C35.1219 49.6615 35.6789 49.6028 36.2374 49.603C37.55 49.603 38.8058 49.9093 39.9191 50.4214C41.043 50.9416 42.2646 51.212 43.5013 51.2145C44.7558 51.2145 45.9852 50.9222 47.0683 50.4214C47.8336 50.0732 48.657 49.7924 49.5383 49.6755C49.0604 35.095 34.07 22.0866 33.3639 21.413C32.6275 20.7382 31.9479 19.2602 32.4258 17.5153L36.0054 5.502C36.6421 3.64021 36.3244 1.15061 35.4443 0.403355C34.9387 -0.00712907 33.8695 -0.300695 33.1457 0.535524L23.4597 11.6834C21.3364 13.9697 23.1143 16.4161 23.0714 16.4021C19.7767 15.1999 15.9084 16.0056 13.5619 16.9867L5.56043 21.1055C4.76609 21.4423 4.42061 22.4666 4.83922 23.1554C6.16817 25.3107 10.5724 25.3247 19.749 24.3131C34.5756 22.7004 34.5907 46.8046 34.5756 49.7784Z" fill="#EDEDED"/>
</svg>
