<svg width="178" height="60" viewBox="0 0 178 60" fill="none" xmlns="http://www.w3.org/2000/svg">
<rect width="178" height="60" rx="10" fill="#254F58" fill-opacity="0.65"/>
<path d="M74.9535 36.0109C62.6979 44.0468 42.4394 35.289 45.1735 22.7217C47.5704 11.7039 60.4387 14.8705 63.3656 16.3573C66.2926 17.8441 64.5212 9.94676 57.7337 7.57639C48.5396 4.36534 37.2856 5.04613 33.7282 21.1755C31.2972 32.1982 36.0587 47.6518 54.3417 47.8579C72.6246 48.0639 74.9535 36.0109 74.9535 36.0109Z" fill="white"/>
<path d="M78.9807 38.3543C78.9807 34.8596 74.5437 34.5534 72.5362 36.5321C67.7126 41.2856 60.6108 43.0656 51.1117 41.1912C34.5978 37.9342 34.4512 18.3695 45.7418 12.7886C51.8496 9.76937 59.0963 13.3439 61.8513 15.4838C64.2487 17.3451 68.8339 19.8156 68.5938 16.7084C68.0815 10.0934 55.2555 -4.07284 38.0697 4.88389C20.8856 13.8406 21 34.0551 21 37.7192V49.5258C21 53.1232 23.9226 55.9535 27.4815 55.9535H72.5926C76.1516 55.9535 79 53.1232 79 49.5258C79 49.5258 78.9936 38.3641 78.9807 38.3543Z" fill="#55888B"/>
<path d="M65.1438 26.1522C65.1438 27.8076 64.8449 29.2382 64.2471 30.444C63.6493 31.6498 62.8293 32.5796 61.787 33.2336C60.7447 33.8876 59.5543 34.2146 58.2156 34.2146C56.877 34.2146 55.6866 33.8876 54.6443 33.2336C53.602 32.5796 52.782 31.6498 52.1842 30.444C51.5864 29.2382 51.2875 27.8076 51.2875 26.1522C51.2875 24.4968 51.5864 23.0662 52.1842 21.8605C52.782 20.6547 53.602 19.7248 54.6443 19.0708C55.6866 18.4168 56.877 18.0899 58.2156 18.0899C59.5543 18.0899 60.7447 18.4168 61.787 19.0708C62.8293 19.7248 63.6493 20.6547 64.2471 21.8605C64.8449 23.0662 65.1438 24.4968 65.1438 26.1522ZM63.3044 26.1522C63.3044 24.7932 63.0771 23.6461 62.6224 22.7112C62.1727 21.7762 61.5622 21.0685 60.7907 20.5883C60.0243 20.108 59.166 19.8679 58.2156 19.8679C57.2653 19.8679 56.4044 20.108 55.6329 20.5883C54.8665 21.0685 54.256 21.7762 53.8013 22.7112C53.3517 23.6461 53.1269 24.7932 53.1269 26.1522C53.1269 27.5113 53.3517 28.6583 53.8013 29.5933C54.256 30.5283 54.8665 31.2359 55.6329 31.7162C56.4044 32.1964 57.2653 32.4366 58.2156 32.4366C59.166 32.4366 60.0243 32.1964 60.7907 31.7162C61.5622 31.2359 62.1727 30.5283 62.6224 29.5933C63.0771 28.6583 63.3044 27.5113 63.3044 26.1522Z" fill="white"/>
<path d="M83.1111 23.2093H81.2105C81.0981 22.6626 80.9014 22.1823 80.6204 21.7685C80.3445 21.3547 80.0073 21.0072 79.6087 20.7262C79.2153 20.4401 78.7785 20.2255 78.2982 20.0825C77.818 19.9394 77.3173 19.8679 76.7961 19.8679C75.8458 19.8679 74.9849 20.108 74.2134 20.5883C73.447 21.0685 72.8365 21.7762 72.3817 22.7112C71.9321 23.6461 71.7073 24.7932 71.7073 26.1522C71.7073 27.5113 71.9321 28.6583 72.3817 29.5933C72.8365 30.5283 73.447 31.2359 74.2134 31.7162C74.9849 32.1964 75.8458 32.4366 76.7961 32.4366C77.3173 32.4366 77.818 32.365 78.2982 32.222C78.7785 32.0789 79.2153 31.8669 79.6087 31.5859C80.0073 31.2998 80.3445 30.9498 80.6204 30.5359C80.9014 30.117 81.0981 29.6367 81.2105 29.0951H83.1111C82.9681 29.8973 82.7075 30.6151 82.3294 31.2487C81.9513 31.8822 81.4813 32.4212 80.9193 32.8658C80.3572 33.3051 79.7263 33.6398 79.0263 33.8697C78.3314 34.0996 77.588 34.2146 76.7961 34.2146C75.4575 34.2146 74.267 33.8876 73.2248 33.2336C72.1825 32.5796 71.3624 31.6498 70.7647 30.444C70.1669 29.2382 69.868 27.8076 69.868 26.1522C69.868 24.4968 70.1669 23.0662 70.7647 21.8605C71.3624 20.6547 72.1825 19.7248 73.2248 19.0708C74.267 18.4168 75.4575 18.0899 76.7961 18.0899C77.588 18.0899 78.3314 18.2048 79.0263 18.4347C79.7263 18.6646 80.3572 19.0018 80.9193 19.4464C81.4813 19.8857 81.9513 20.4222 82.3294 21.0558C82.7075 21.6842 82.9681 22.402 83.1111 23.2093ZM87.6931 34V18.3044H97.1656V19.9905H89.5937V25.2939H96.6751V26.9799H89.5937V32.314H97.2882V34H87.6931ZM102.746 34H100.753L106.516 18.3044H108.478L114.242 34H112.249L107.559 20.7875H107.436L102.746 34ZM103.482 27.8689H111.513V29.555H103.482V27.8689ZM130.643 18.3044V34H128.804L120.251 21.6765H120.098V34H118.197V18.3044H120.036L128.62 30.6586H128.773V18.3044H130.643ZM137.858 18.3044V34H135.957V18.3044H137.858ZM155.809 23.2093H153.909C153.796 22.6626 153.599 22.1823 153.318 21.7685C153.043 21.3547 152.705 21.0072 152.307 20.7262C151.913 20.4401 151.477 20.2255 150.996 20.0825C150.516 19.9394 150.015 19.8679 149.494 19.8679C148.544 19.8679 147.683 20.108 146.912 20.5883C146.145 21.0685 145.535 21.7762 145.08 22.7112C144.63 23.6461 144.405 24.7932 144.405 26.1522C144.405 27.5113 144.63 28.6583 145.08 29.5933C145.535 30.5283 146.145 31.2359 146.912 31.7162C147.683 32.1964 148.544 32.4366 149.494 32.4366C150.015 32.4366 150.516 32.365 150.996 32.222C151.477 32.0789 151.913 31.8669 152.307 31.5859C152.705 31.2998 153.043 30.9498 153.318 30.5359C153.599 30.117 153.796 29.6367 153.909 29.0951H155.809C155.666 29.8973 155.406 30.6151 155.028 31.2487C154.649 31.8822 154.179 32.4212 153.617 32.8658C153.055 33.3051 152.424 33.6398 151.724 33.8697C151.03 34.0996 150.286 34.2146 149.494 34.2146C148.156 34.2146 146.965 33.8876 145.923 33.2336C144.881 32.5796 144.061 31.6498 143.463 30.444C142.865 29.2382 142.566 27.8076 142.566 26.1522C142.566 24.4968 142.865 23.0662 143.463 21.8605C144.061 20.6547 144.881 19.7248 145.923 19.0708C146.965 18.4168 148.156 18.0899 149.494 18.0899C150.286 18.0899 151.03 18.2048 151.724 18.4347C152.424 18.6646 153.055 19.0018 153.617 19.4464C154.179 19.8857 154.649 20.4222 155.028 21.0558C155.406 21.6842 155.666 22.402 155.809 23.2093ZM86.2444 39.56L90.8281 52.5573H91.0091L95.5928 39.56H97.553L91.8836 55H89.9536L84.2842 39.56H86.2444ZM103.314 39.56V55H101.444V39.56H103.314ZM108.549 55V39.56H117.867V41.2186H110.418V46.4356H117.384V48.0942H110.418V53.3414H117.988V55H108.549ZM125.527 55L121.306 39.56H123.205L126.432 52.1352H126.583L129.87 39.56H131.981L135.268 52.1352H135.419L138.645 39.56H140.545L136.323 55H134.393L130.986 42.6962H130.865L127.457 55H125.527ZM152.805 43.42C152.714 42.656 152.347 42.063 151.704 41.6408C151.061 41.2186 150.272 41.0075 149.337 41.0075C148.653 41.0075 148.055 41.1181 147.542 41.3392C147.035 41.5604 146.638 41.8644 146.351 42.2514C146.07 42.6385 145.929 43.0782 145.929 43.5708C145.929 43.9829 146.027 44.3373 146.223 44.6338C146.424 44.9253 146.68 45.1691 146.992 45.3651C147.304 45.5561 147.63 45.7144 147.972 45.84C148.314 45.9607 148.628 46.0587 148.915 46.1341L150.483 46.5563C150.885 46.6618 151.332 46.8076 151.825 46.9935C152.322 47.1795 152.797 47.4333 153.25 47.755C153.707 48.0716 154.084 48.4787 154.38 48.9763C154.677 49.4739 154.825 50.0845 154.825 50.8083C154.825 51.6426 154.607 52.3965 154.169 53.07C153.737 53.7435 153.104 54.2788 152.269 54.6758C151.44 55.0729 150.432 55.2714 149.246 55.2714C148.141 55.2714 147.183 55.093 146.374 54.7361C145.57 54.3793 144.936 53.8817 144.474 53.2434C144.017 52.6051 143.758 51.8638 143.698 51.0194H145.628C145.678 51.6024 145.874 52.0849 146.216 52.4669C146.562 52.8438 147 53.1253 147.527 53.3113C148.06 53.4922 148.633 53.5827 149.246 53.5827C149.96 53.5827 150.601 53.4671 151.169 53.2359C151.737 52.9996 152.187 52.6729 152.518 52.2558C152.85 51.8336 153.016 51.341 153.016 50.7781C153.016 50.2655 152.873 49.8483 152.586 49.5266C152.3 49.205 151.923 48.9436 151.455 48.7426C150.988 48.5415 150.483 48.3656 149.94 48.2148L148.04 47.672C146.834 47.3252 145.879 46.8302 145.175 46.1868C144.472 45.5435 144.12 44.7016 144.12 43.6612C144.12 42.7968 144.353 42.0429 144.821 41.3995C145.293 40.7512 145.927 40.2486 146.721 39.8917C147.52 39.5298 148.412 39.3489 149.397 39.3489C150.392 39.3489 151.277 39.5273 152.051 39.8842C152.825 40.236 153.438 40.7185 153.89 41.3317C154.348 41.9449 154.589 42.641 154.614 43.42H152.805Z" fill="white"/>
<path d="M14.2726 48.4784L14.2987 49.0062C14.1484 49.0449 14.0177 49.1061 13.9067 49.1898C13.7955 49.2721 13.7037 49.3705 13.6311 49.485C13.5571 49.5982 13.5035 49.7224 13.4703 49.8577C13.4372 49.9931 13.4242 50.1331 13.4313 50.2778C13.4444 50.5417 13.5229 50.7774 13.6668 50.9851C13.8107 51.1913 14.0155 51.3511 14.2814 51.4646C14.5472 51.5766 14.8688 51.6233 15.2461 51.6047C15.6235 51.5861 15.9389 51.5079 16.1924 51.3702C16.4458 51.2312 16.6339 51.0519 16.7568 50.8325C16.8796 50.6117 16.9344 50.3694 16.9214 50.1055C16.9143 49.9608 16.8875 49.8227 16.8412 49.6913C16.7949 49.5599 16.7301 49.4415 16.6466 49.3361C16.5617 49.2294 16.4599 49.1406 16.3412 49.0696C16.221 48.9973 16.085 48.9493 15.933 48.9255L15.907 48.3977C16.1317 48.4265 16.3346 48.489 16.5157 48.5853C16.6968 48.6816 16.8529 48.8047 16.9841 48.9547C17.1138 49.1047 17.2154 49.2754 17.2888 49.4666C17.3622 49.6564 17.4043 49.8612 17.4151 50.0811C17.4335 50.4528 17.359 50.7879 17.1917 51.0862C17.0244 51.3846 16.7774 51.6251 16.4508 51.8076C16.1242 51.9901 15.731 52.0927 15.2714 52.1154C14.8117 52.1381 14.4103 52.0747 14.0673 51.9253C13.7243 51.7758 13.4549 51.5609 13.259 51.2804C13.0631 50.9999 12.956 50.6739 12.9376 50.3022C12.9268 50.0823 12.9485 49.8743 13.0028 49.6782C13.0571 49.4806 13.142 49.3008 13.2578 49.1387C13.3721 48.9766 13.5146 48.8387 13.6853 48.725C13.8547 48.6114 14.0504 48.5292 14.2726 48.4784Z" fill="white"/>
<path d="M17.3267 43.0995L12.9709 42.8385L13.1284 40.2097L13.5963 40.2377L13.4704 42.3391L14.9422 42.4273L15.0599 40.462L15.5278 40.4901L15.4101 42.4553L16.8904 42.544L17.0183 40.4086L17.4862 40.4366L17.3267 43.0995Z" fill="white"/>
<path d="M13.7057 34.9385L13.8041 34.3415L16.0106 33.4784L16.0189 33.428L14.2058 31.9027L14.3041 31.3057L16.5791 33.2784L18.3535 33.5707L18.2676 34.0921L16.4932 33.7998L13.7057 34.9385Z" fill="white"/>
<path d="M19.6214 27.5749L15.412 26.4249L15.5512 25.9152L19.3084 26.9416L19.843 24.9849L20.2952 25.1084L19.6214 27.5749Z" fill="white"/>
<path d="M21.2679 15.853C21.696 16.0219 22.0355 16.2452 22.2863 16.5229C22.5371 16.8005 22.6939 17.1075 22.7567 17.4437C22.8194 17.78 22.7825 18.1213 22.6459 18.4674C22.5093 18.8136 22.3033 19.0881 22.0278 19.2909C21.7523 19.4937 21.4281 19.6109 21.0553 19.6424C20.6825 19.674 20.282 19.6053 19.8539 19.4364C19.4258 19.2674 19.0863 19.0441 18.8355 18.7665C18.5847 18.4888 18.4279 18.1819 18.3651 17.8456C18.3024 17.5093 18.3393 17.1681 18.4759 16.8219C18.6125 16.4757 18.8185 16.2012 19.094 15.9984C19.3695 15.7956 19.6937 15.6784 20.0665 15.6469C20.4394 15.6154 20.8398 15.6841 21.2679 15.853ZM21.0802 16.3287C20.7288 16.19 20.4089 16.1317 20.1207 16.1539C19.833 16.1747 19.5877 16.2604 19.3848 16.4109C19.1824 16.5601 19.0327 16.7576 18.9357 17.0034C18.8387 17.2491 18.813 17.4963 18.8584 17.7448C18.9044 17.992 19.0251 18.2221 19.2205 18.4351C19.4164 18.6468 19.6901 18.822 20.0416 18.9607C20.3931 19.0994 20.7126 19.1583 21.0003 19.1374C21.2885 19.1153 21.5338 19.0296 21.7362 18.8804C21.9392 18.7299 22.0891 18.5318 22.1861 18.286C22.2831 18.0402 22.3086 17.7937 22.2626 17.5465C22.2171 17.298 22.0964 17.0679 21.9005 16.8562C21.7051 16.6432 21.4317 16.4674 21.0802 16.3287Z" fill="white"/>
<path d="M23.2155 6.96679L27.0641 9.02338L26.8231 9.47438L22.6807 9.95683L22.6606 9.99441L25.6824 11.6092L25.4333 12.0752L21.5847 10.0186L21.8257 9.5676L25.9797 9.08166L25.9998 9.04407L22.9705 7.42531L23.2155 6.96679Z" fill="white"/>
</svg>
