<svg width="35" height="35" viewBox="0 0 62 69" fill="none" xmlns="http://www.w3.org/2000/svg">
<path d="M60.095 0C60.4203 0 60.7322 0.129213 60.9622 0.359213C61.1922 0.589213 61.3214 0.901159 61.3214 1.22643V49.1626L61.3165 49.3588C61.2749 50.296 61.1766 51.2298 61.0222 52.1551C60.6532 54.4191 59.9515 56.6161 58.9397 58.6748C57.7255 61.1031 55.8442 63.6443 52.9547 65.5722C50.0481 67.51 46.332 68.68 41.6986 68.68C37.07 68.68 33.3515 67.5124 30.4399 65.5722C27.5505 63.6443 25.6716 61.1031 24.455 58.6748C23.4438 56.6152 22.7429 54.4174 22.375 52.1526C22.2206 51.2282 22.1223 50.2952 22.0806 49.3588C22.0784 49.2934 22.0767 49.228 22.0757 49.1626V49.0571H19.6645C19.0093 49.0598 18.3796 48.8035 17.9124 48.3441C17.4452 47.8848 17.1784 47.2594 17.17 46.6043C17.17 45.2577 18.2959 44.1514 19.6645 44.1514H31.8454C33.2387 44.1514 34.34 45.2577 34.34 46.6043C34.34 47.9509 33.2141 49.0571 31.8454 49.0571H29.4343V49.1136L29.4564 49.4815C29.4809 49.8175 29.5299 50.3253 29.633 50.9434C29.8415 52.1968 30.2535 53.8132 31.0384 55.3831C31.816 56.9406 32.9271 58.3853 34.5215 59.4474C36.0938 60.4973 38.3553 61.3214 41.6986 61.3214C45.0418 61.3214 47.3033 60.4973 48.8756 59.4474C50.47 58.3853 51.5811 56.9406 52.3587 55.3831C53.1436 53.8132 53.5557 52.1968 53.7642 50.9434C53.865 50.3377 53.9305 49.7268 53.9604 49.1136L53.9628 49.0424V1.22643C53.9628 0.901159 54.0921 0.589213 54.3221 0.359213C54.5521 0.129213 54.864 0 55.1893 0H60.095Z" fill="#EDEDED"/>
<path d="M19.6989 33.6974C18.0896 34.9106 16.1291 35.5667 14.1137 35.5665C12.2606 35.5684 10.4252 35.205 8.71262 34.497C7.00003 33.7891 5.44381 32.7504 4.13297 31.4405C2.82214 30.1305 1.7824 28.575 1.07322 26.8629C0.364049 25.1509 -0.000644956 23.3157 8.56218e-07 21.4626C-0.000644956 19.6094 0.364049 17.7743 1.07322 16.0622C1.7824 14.3501 2.82214 12.7946 4.13297 11.4847C5.44381 10.1748 7.00003 9.1361 8.71262 8.42812C10.4252 7.72013 12.2606 7.35672 14.1137 7.35865H37.3497C41.0958 7.35733 44.6898 8.84105 47.3441 11.4847C49.9983 14.1284 51.4964 17.7164 51.51 21.4626C51.5106 23.3157 51.1459 25.1509 50.4368 26.8629C49.7276 28.575 48.6879 30.1305 47.377 31.4405C46.0662 32.7504 44.51 33.7891 42.7974 34.497C41.0848 35.205 39.2494 35.5684 37.3963 35.5665C35.3677 35.5665 33.4472 34.9042 31.8822 33.7514C31.7318 35.2583 31.0263 36.6554 29.9029 37.6709C28.7794 38.6864 27.3184 39.2478 25.8041 39.2458C22.6153 39.2458 19.9932 36.8076 19.6989 33.6974ZM47.4996 21.4626C47.497 18.7719 46.4266 16.1922 44.5236 14.2901C42.6205 12.388 40.0403 11.3189 37.3497 11.3176H14.1137C11.4226 11.3182 8.84183 12.387 6.93824 14.2892C5.03466 16.1914 3.96396 18.7715 3.96136 21.4626C3.96396 24.1537 5.03466 26.7337 6.93824 28.6359C8.84183 30.5381 11.4226 31.6069 14.1137 31.6076C16.2649 31.6076 18.1732 30.3346 19.0047 28.3551L20.0325 25.9366C20.5013 24.8125 21.2929 23.8525 22.307 23.178C23.3212 22.5035 24.5125 22.1447 25.7305 22.1469C26.9479 22.1473 28.1381 22.5071 29.1517 23.1813C30.1654 23.8555 30.9574 24.814 31.4285 25.9366L32.4587 28.3551C32.86 29.3207 33.5392 30.1454 34.41 30.7245C35.2808 31.3035 36.3039 31.6109 37.3497 31.6076C40.0403 31.6063 42.6205 30.5372 44.5236 28.635C46.4266 26.7329 47.497 24.1533 47.4996 21.4626Z" fill="#EDEDED"/>
</svg>
